<svg height="340" width="340" xmlns="http://www.w3.org/2000/svg">
<rect width="100%" height="100%" x="0" y="0" style="fill:white;stroke:white;stroke-width:0"/>
<g style="fill:white;stroke:black;stroke-width:1">
<rect width="225" height="225" x="60" y="60"/>
<polygon points="10,95 10,85 30,85 40,95 60,95 40,95 30,105 10,105 10,95"/>
<text x="65" y="85" dominant-baseline="hanging" text-anchor="start" font-size="20" style="fill:black;stroke:black;stroke-width:0">arst_ni</text>
<polygon points="10,145 10,135 30,135 40,145 60,145 40,145 30,155 10,155 10,145"/>
<text x="65" y="135" dominant-baseline="hanging" text-anchor="start" font-size="20" style="fill:black;stroke:black;stroke-width:0">clk_i</text>
<polygon points="10,245 10,235 30,235 40,245 60,245 40,245 30,255 10,255 10,245"/>
<text x="65" y="235" dominant-baseline="hanging" text-anchor="start" font-size="20" style="fill:black;stroke:black;stroke-width:0">boot_addr_i</text>
<polygon points="285,95 305,95 305,85 325,85 335,95 325,105 305,105 305,95 285,95"/>
<text x="280" y="85" dominant-baseline="hanging" text-anchor="end" font-size="20" style="fill:black;stroke:black;stroke-width:0">imem_req_o</text>
<polygon points="285,145 305,145 305,135 325,135 335,145 325,155 305,155 305,145 285,145"/>
<text x="280" y="135" dominant-baseline="hanging" text-anchor="end" font-size="20" style="fill:black;stroke:black;stroke-width:0">imem_addr_o</text>
<polygon points="285,195 305,195 305,185 325,185 335,195 325,205 305,205 305,195 285,195"/>
<text x="280" y="185" dominant-baseline="hanging" text-anchor="end" font-size="20" style="fill:black;stroke:black;stroke-width:0">imem_data_i</text>
<polygon points="285,245 305,245 305,235 325,235 335,245 325,255 305,255 305,245 285,245"/>
<text x="280" y="235" dominant-baseline="hanging" text-anchor="end" font-size="20" style="fill:black;stroke:black;stroke-width:0">imem_ack_i</text>
<text x="170" y="300" dominant-baseline="hanging" text-anchor="middle" font-size="30" style="fill:black;stroke:black;stroke-width:0">rv_g_core</text>
</g>
</svg>
